<svg width="50" height="50" viewBox="0 0 50 50" fill="none" xmlns="http://www.w3.org/2000/svg">
<path d="M10.4167 10.4167C7.16265 12.216 4.60376 15.0517 3.14705 18.4728C1.69034 21.8938 1.41948 25.7038 2.37755 29.2966C3.33562 32.8893 5.4676 36.0586 8.43433 38.3001C11.4011 40.5416 15.0322 41.7266 18.75 41.6667H37.5C38.7079 41.6653 39.9063 41.4538 41.0417 41.0417M47.1042 35.3125C47.7754 33.7278 48.0435 32.0013 47.8845 30.2876C47.7254 28.5739 47.1443 26.9263 46.193 25.4921C45.2416 24.0579 43.9497 22.8817 42.4328 22.0687C40.9158 21.2558 39.2211 20.8313 37.5 20.8334H34.875C34.0246 17.4844 32.1543 14.4825 29.523 12.2431C26.8917 10.0036 23.6294 8.6374 20.1875 8.33337L47.1042 35.3125Z" stroke="#07617D" stroke-width="2" stroke-linecap="round" stroke-linejoin="round"/>
<path d="M2.08334 2.08337L47.9167 47.9167" stroke="#07617D" stroke-width="2" stroke-linecap="round" stroke-linejoin="round"/>
</svg>
