<svg width="50" height="50" viewBox="0 0 50 50" fill="none" xmlns="http://www.w3.org/2000/svg">
<path d="M37.5 43.75C40.9518 43.75 43.75 40.9518 43.75 37.5C43.75 34.0482 40.9518 31.25 37.5 31.25C34.0482 31.25 31.25 34.0482 31.25 37.5C31.25 40.9518 34.0482 43.75 37.5 43.75Z" stroke="#07617D" stroke-width="2" stroke-linecap="round" stroke-linejoin="round"/>
<path d="M12.5 18.75C15.9518 18.75 18.75 15.9518 18.75 12.5C18.75 9.04822 15.9518 6.25 12.5 6.25C9.04822 6.25 6.25 9.04822 6.25 12.5C6.25 15.9518 9.04822 18.75 12.5 18.75Z" stroke="#07617D" stroke-width="2" stroke-linecap="round" stroke-linejoin="round"/>
<path d="M27.0833 12.5H33.3333C34.4384 12.5 35.4982 12.939 36.2796 13.7204C37.061 14.5018 37.5 15.5616 37.5 16.6667V31.25" stroke="#07617D" stroke-width="2" stroke-linecap="round" stroke-linejoin="round"/>
<path d="M12.5 18.75V43.75" stroke="#07617D" stroke-width="2" stroke-linecap="round" stroke-linejoin="round"/>
</svg>
