<svg width="50" height="50" viewBox="0 0 50 50" fill="none" xmlns="http://www.w3.org/2000/svg">
<path d="M25 45.8333C36.5059 45.8333 45.8333 36.5059 45.8333 25C45.8333 13.494 36.5059 4.16663 25 4.16663C13.4941 4.16663 4.16667 13.494 4.16667 25C4.16667 36.5059 13.4941 45.8333 25 45.8333Z" stroke="#07617D" stroke-width="2" stroke-linecap="round" stroke-linejoin="round"/>
<path d="M18.9375 18.7501C19.4273 17.3577 20.3941 16.1836 21.6666 15.4358C22.9391 14.6879 24.4352 14.4145 25.89 14.6641C27.3447 14.9136 28.6642 15.6699 29.6147 16.7991C30.5653 17.9283 31.0855 19.3574 31.0833 20.8334C31.0833 25.0001 24.8333 27.0834 24.8333 27.0834" stroke="#07617D" stroke-width="2" stroke-linecap="round" stroke-linejoin="round"/>
<path d="M25 35.4166H25.0208" stroke="#07617D" stroke-width="2" stroke-linecap="round" stroke-linejoin="round"/>
</svg>
