<?xml version="1.0" encoding="utf-8"?>
<!-- Generator: Adobe Illustrator 16.0.0, SVG Export Plug-In . SVG Version: 6.00 Build 0)  -->
<!DOCTYPE svg PUBLIC "-//W3C//DTD SVG 1.1//EN" "http://www.w3.org/Graphics/SVG/1.1/DTD/svg11.dtd">
<svg version="1.1" id="Layer_1" xmlns="http://www.w3.org/2000/svg" xmlns:xlink="http://www.w3.org/1999/xlink" x="0px" y="0px"
	 width="76.333px" height="76.333px" viewBox="-9.667 -3.833 76.333 76.333" enable-background="new -9.667 -3.833 76.333 76.333"
	 xml:space="preserve">
<path fill="#014550" d="M66.667,60.292c0,6.742-5.465,12.208-12.207,12.208H2.541c-6.742,0-12.208-5.466-12.208-12.208V8.374
	c0-6.742,5.465-12.208,12.208-12.208H54.46c6.742,0,12.207,5.465,12.207,12.208V60.292z"/>
<g>
	<path fill="#FFFFFF" d="M26.081,35.792l-3.76,3.886v18.696h-9.735V8.972h9.735v15.946L36.587,8.972h13.171L32.703,28.299
		l17.478,30.05H38.554L26.081,35.792z"/>
	<path fill="#07617D" d="M53.044,8.292L45.7,16.592L32.728,31.427l-6.523,7.443l-6.971-7.544l20.64-23.035H53.044z"/>
	<path fill="#15A0B7" d="M26.205,38.87l-0.075,0.076l-3.81,4.365l-2.714,3.103l-6.971-7.72L1.955,26.86h13.146l4.133,4.466
		L26.205,38.87z"/>
</g>
</svg>
