<svg width="321" height="52" viewBox="0 0 321 52" fill="none" xmlns="http://www.w3.org/2000/svg">
<path d="M24.1254 28.8889L20.3659 32.7744V51.4702H10.6311V2.06894H20.3659V18.0146L34.632 2.06894H47.8027L30.7481 21.3955L48.2259 51.445H36.5989L24.1254 28.8889Z" fill="#274851"/>
<path d="M51.0891 1.3877L43.7444 9.68852L30.773 24.524L24.2499 31.967L17.2787 24.4231L37.9185 1.3877H51.0891Z" fill="#07617D"/>
<path d="M24.2499 31.967L24.1752 32.0427L20.3659 36.4076L17.6521 39.5109L10.6809 31.7904L0 19.9573H13.1457L17.2787 24.4231L24.2499 31.967Z" fill="#15A0B7"/>
<path d="M73.4219 2.01843H103.921V11.4294H83.0323V22.657H101.133V32.0427H83.0323V51.4702H73.4219V2.01843Z" fill="#07617D"/>
<path d="M113.531 26.82C113.531 23.4139 114.179 20.1844 115.448 17.1567C116.718 14.1038 118.511 11.4042 120.776 9.05773C123.042 6.7113 125.681 4.86947 128.694 3.50702C131.706 2.16981 134.918 1.48859 138.379 1.48859C141.79 1.48859 144.977 2.16981 147.989 3.50702C151.002 4.84424 153.666 6.68607 155.981 9.05773C158.297 11.4042 160.114 14.1038 161.409 17.1567C162.703 20.2096 163.376 23.4391 163.376 26.82C163.376 30.3018 162.728 33.5818 161.409 36.6346C160.114 39.6875 158.297 42.362 155.981 44.6579C153.666 46.9539 151.002 48.7705 147.989 50.0573C144.977 51.3692 141.79 52 138.379 52C134.943 52 131.706 51.344 128.694 50.0573C125.681 48.7705 123.042 46.9539 120.776 44.6579C118.511 42.362 116.718 39.6875 115.448 36.6346C114.179 33.5818 113.531 30.3018 113.531 26.82ZM123.49 26.82C123.49 29.015 123.889 31.0587 124.66 32.9762C125.432 34.8685 126.528 36.5589 127.897 38.0223C129.291 39.4857 130.91 40.6211 132.727 41.4032C134.57 42.2106 136.561 42.6143 138.727 42.6143C140.794 42.6143 142.736 42.2106 144.528 41.4032C146.321 40.5958 147.865 39.4605 149.209 38.0223C150.529 36.5589 151.574 34.8937 152.321 32.9762C153.068 31.0839 153.442 29.015 153.442 26.82C153.442 24.5745 153.043 22.5056 152.271 20.5628C151.5 18.6453 150.429 16.9549 149.085 15.4915C147.74 14.0281 146.147 12.8928 144.354 12.1106C142.537 11.3032 140.57 10.8996 138.453 10.8996C136.337 10.8996 134.37 11.3032 132.553 12.1106C130.735 12.918 129.142 14.0534 127.773 15.4915C126.403 16.9549 125.333 18.6453 124.586 20.5628C123.864 22.4803 123.49 24.5745 123.49 26.82Z" fill="#07617D"/>
<path d="M202.489 33.5061C204.058 32.623 205.352 31.5381 206.398 30.2513C207.743 28.5861 208.713 26.7695 209.311 24.7511C209.909 22.7326 210.207 20.7142 210.207 18.6958C210.207 16.1475 209.784 13.8515 208.938 11.8079C208.091 9.76419 206.871 8.02328 205.253 6.55992C203.634 5.09655 201.643 3.98641 199.253 3.20426C196.887 2.39689 194.149 2.01843 191.111 2.01843H176.322V51.4702H185.933V35.7516H192.331L202.639 51.4702H213.842L202.489 33.5061ZM185.933 11.4294H192.829C194.497 11.4294 195.842 11.7322 196.838 12.3125C197.833 12.8928 198.58 13.5992 199.053 14.4571C199.551 15.3149 199.85 16.1475 200.024 16.9801C200.174 17.8127 200.248 18.4939 200.248 19.0238C200.248 19.7302 200.124 20.5124 199.875 21.345C199.626 22.1776 199.228 22.9597 198.68 23.7166C198.132 24.4736 197.36 25.1043 196.389 25.6089C195.418 26.1135 194.198 26.3406 192.754 26.3406H185.933V11.4294Z" fill="#07617D"/>
<path d="M275.388 0V51.4702H265.778V27.8797L249.844 50.7889H249.719L234.407 29.343V51.4702H225.121V0H225.195L249.943 35.575L275.239 0H275.388Z" fill="#07617D"/>
<path d="M317.34 13.9777C315.473 12.9432 313.606 12.0854 311.664 11.4294C309.747 10.7482 307.929 10.4202 306.261 10.4202C304.194 10.4202 302.551 10.8491 301.356 11.7069C300.161 12.5648 299.564 13.8263 299.564 15.542C299.564 16.7026 300.012 17.737 300.933 18.6705C301.829 19.5788 302.999 20.4114 304.443 21.1179C305.887 21.8244 307.381 22.4803 308.925 23.0606C310.344 23.5905 311.738 24.2465 313.133 24.9782C314.527 25.7098 315.772 26.6434 316.867 27.7283C317.963 28.8384 318.859 30.2009 319.531 31.8156C320.203 33.4556 320.527 35.4488 320.527 37.8205C320.527 40.3183 319.88 42.6647 318.61 44.8093C317.315 46.9539 315.448 48.6948 312.983 50.0068C310.518 51.3188 307.456 52 303.821 52C301.954 52 300.086 51.7982 298.144 51.4197C296.227 51.0412 294.335 50.4609 292.468 49.6788C290.601 48.8966 288.833 47.8874 287.09 46.6764L291.323 39.082C292.468 39.9398 293.713 40.6967 295.057 41.3275C296.402 41.9835 297.771 42.4881 299.14 42.8413C300.51 43.1946 301.779 43.3712 302.925 43.3712C304.07 43.3712 305.24 43.1946 306.41 42.8666C307.58 42.5386 308.551 41.9583 309.323 41.1509C310.095 40.3435 310.493 39.2334 310.493 37.7952C310.493 36.8113 310.17 35.903 309.522 35.0956C308.875 34.2882 308.029 33.5565 306.933 32.8753C305.838 32.1941 304.667 31.6138 303.398 31.1344C301.904 30.5541 300.36 29.8729 298.767 29.116C297.173 28.359 295.68 27.4255 294.285 26.3154C292.891 25.2305 291.771 23.8428 290.899 22.228C290.028 20.5881 289.605 18.5949 289.605 16.2232C289.605 13.3469 290.227 10.8743 291.497 8.75497C292.767 6.66084 294.534 4.9704 296.825 3.75934C299.115 2.52304 301.779 1.84182 304.792 1.71567C308.726 1.71567 311.913 2.19505 314.377 3.12857C316.842 4.0621 319.033 5.19747 320.975 6.48423L317.34 13.9777Z" fill="#07617D"/>
<path d="M51.4377 23.5653H63.9112V31.7652H51.4377V23.5653Z" fill="#07617D"/>
</svg>
